<?xml version="1.0" encoding="UTF-8"?>
<svg version="1.1" xmlns="http://www.w3.org/2000/svg" width="1381" height="261">
<path d="M0 0 C455.73 0 911.46 0 1381 0 C1381 86.13 1381 172.26 1381 261 C925.27 261 469.54 261 0 261 C0 174.87 0 88.74 0 0 Z " fill="#FEFEFE" transform="translate(0,0)"/>
<path d="M0 0 C1.34455434 -0.00901472 2.68910796 -0.01813698 4.03366089 -0.02735901 C6.83203529 -0.04368634 9.63029244 -0.05151863 12.42871094 -0.05444336 C15.25233665 -0.05873988 18.07504551 -0.07954385 20.8984375 -0.1159668 C42.46072308 -0.38902682 62.2609246 0.83631525 81.5546875 11.37109375 C82.15087891 11.69062012 82.74707031 12.01014648 83.36132812 12.33935547 C106.09976507 24.66283893 122.61579019 44.54549671 130.21118164 69.39038086 C132.65833055 77.94660487 134.66544617 86.50177765 135.5546875 95.37109375 C135.66425781 96.40234375 135.77382812 97.43359375 135.88671875 98.49609375 C136.20739694 102.12189517 136.40166875 105.73422952 136.5546875 109.37109375 C136.60568604 110.47662598 136.60568604 110.47662598 136.65771484 111.60449219 C138.0767763 146.77128434 132.92029311 180.06372947 109.5546875 207.37109375 C108.77738281 208.35078125 108.00007812 209.33046875 107.19921875 210.33984375 C91.56271603 229.08052136 64.51077352 238.77254656 40.92633057 241.17974854 C31.92874318 241.90567788 22.88830216 241.90034954 13.8671875 241.93359375 C12.32360565 241.94673615 12.32360565 241.94673615 10.74884033 241.96014404 C-9.64517065 242.07907021 -29.8698305 240.36553767 -48.4453125 231.37109375 C-49.53714844 230.85804688 -50.62898438 230.345 -51.75390625 229.81640625 C-63.96479289 223.68897454 -75.04400483 215.19182563 -83.4453125 204.37109375 C-84.02410156 203.63890625 -84.60289063 202.90671875 -85.19921875 202.15234375 C-102.19518371 179.33896797 -107.34923485 152.18716701 -106.93237305 124.2980957 C-106.88248332 120.91124705 -106.87084028 117.52585748 -106.86523438 114.13867188 C-106.69393295 80.69984081 -100.09494653 52.83809071 -76.6328125 28.12109375 C-71.08825328 22.75144176 -64.92230109 18.52147986 -58.4453125 14.37109375 C-57.775 13.93925781 -57.1046875 13.50742187 -56.4140625 13.0625 C-39.47755397 2.79673894 -19.41097495 0.08374188 0 0 Z " fill="#855BEE" transform="translate(108.4453125,7.62890625)"/>
<path d="M0 0 C16.5 0 33 0 50 0 C53.79188609 13.2716013 57.45565183 26.4764689 60.68530273 39.87817383 C62.42570848 47.0767774 64.16315869 54.14064066 67 61 C67.85457411 57.72927299 68.70862964 54.4584108 69.5625 51.1875 C69.82844971 50.16881836 70.09439941 49.15013672 70.3684082 48.10058594 C71.86838241 42.35104703 73.36352722 36.60029736 74.8515625 30.84765625 C75.15763428 29.66469971 75.46370605 28.48174316 75.77905273 27.26293945 C76.37033212 24.97647908 76.96102066 22.6898658 77.55102539 20.40307617 C77.8268042 19.33677979 78.10258301 18.2704834 78.38671875 17.171875 C78.62608154 16.2447168 78.86544434 15.31755859 79.11206055 14.36230469 C80.37844742 9.56695685 81.69500407 4.78498508 83 0 C99.17 0 115.34 0 132 0 C132 36.3 132 72.6 132 110 C120.45 110 108.9 110 97 110 C96.97892685 102.66888637 96.95890321 95.33788491 96.94824982 88.00676727 C96.94300818 84.59149353 96.93602496 81.17624533 96.92456055 77.76098633 C96.91143796 73.82633796 96.90673103 69.89169938 96.90234375 65.95703125 C96.89718246 64.75544876 96.89202118 63.55386627 96.88670349 62.31587219 C96.88619463 54.4992952 97.28774323 46.7838444 98 39 C97.7944751 39.8052562 97.5889502 40.61051239 97.37719727 41.44017029 C91.13636394 65.87333948 91.13636394 65.87333948 87.92407227 76.46069336 C85.52629395 84.43004014 83.43549572 92.48482118 81.32226562 100.53344727 C80.89204102 102.15657837 80.89204102 102.15657837 80.453125 103.8125 C80.19692383 104.78832031 79.94072266 105.76414062 79.67675781 106.76953125 C79 109 79 109 78 110 C75.92737924 110.08767112 73.85179706 110.10695873 71.77734375 110.09765625 C69.88725586 110.09282227 69.88725586 110.09282227 67.95898438 110.08789062 C66.61848891 110.07953403 65.27799412 110.07106907 63.9375 110.0625 C62.59310058 110.0574866 61.2486994 110.05292342 59.90429688 110.04882812 C56.60282059 110.03699488 53.30143197 110.02050971 50 110 C49.82460693 109.33806641 49.64921387 108.67613281 49.46850586 107.99414062 C46.26005435 95.91281883 42.99905712 83.85750999 39.4375 71.875 C35.91683484 60.00839256 32.90294731 48.03087102 30 36 C30.21438721 37.21042969 30.21438721 37.21042969 30.43310547 38.4453125 C32.53012847 52.24720363 32.23179683 66.05592014 32.1373291 79.98522949 C32.11656662 83.37814769 32.10756056 86.77109811 32.09765625 90.1640625 C32.07752183 96.77620458 32.03834372 103.38783927 32 110 C21.44 110 10.88 110 0 110 C0 73.7 0 37.4 0 0 Z " fill="#5E17EB" transform="translate(277,73)"/>
<path d="M0 0 C8.58 0 17.16 0 26 0 C26 6.7359219 25.8083229 9.76621545 22 15 C17.86779913 18.90361103 13.17524699 21.67113885 8 24 C8.40992188 24.45890625 8.81984375 24.9178125 9.2421875 25.390625 C9.78101563 26.00421875 10.31984375 26.6178125 10.875 27.25 C11.40867187 27.85328125 11.94234375 28.4565625 12.4921875 29.078125 C17.07475852 34.91912226 16.51692492 40.82335898 16 48 C15.0113902 54.45820099 11.47405975 58.14378644 6.54296875 62.23828125 C-0.70669793 67.26070778 -8.58505279 69.05429297 -17.2890625 69.24609375 C-18.47757813 69.27896484 -19.66609375 69.31183594 -20.890625 69.34570312 C-23.38792351 69.40709069 -25.8853266 69.46435727 -28.3828125 69.51757812 C-29.56875 69.55173828 -30.7546875 69.58589844 -31.9765625 69.62109375 C-33.60198975 69.65867798 -33.60198975 69.65867798 -35.26025391 69.69702148 C-38.21503358 69.81121778 -38.21503358 69.81121778 -41 72 C-40.80528889 73.94999129 -40.80528889 73.94999129 -40 76 C-37.19434378 77.76026899 -35.04013015 78.24746096 -31.75732422 78.23950195 C-30.92901093 78.24323318 -30.10069763 78.24696442 -29.24728394 78.25080872 C-27.9144487 78.24460762 -27.9144487 78.24460762 -26.5546875 78.23828125 C-24.65363877 78.25371026 -22.75259698 78.27001457 -20.8515625 78.28710938 C-17.86963526 78.30350166 -14.88821821 78.31253152 -11.90625 78.30541992 C10.84670128 78.28461852 10.84670128 78.28461852 18.87304688 85.73974609 C24.38005235 91.49597623 26.17740422 96.96832894 26.5 104.8125 C26.31549885 113.07112284 23.85303262 118.6348846 18.5625 124.875 C9.88503148 132.07094951 1.37574375 135.0654226 -9.87841797 135.17700195 C-11.01334686 135.18983719 -12.14827576 135.20267242 -13.31759644 135.21589661 C-14.53021149 135.22328354 -15.74282654 135.23067047 -16.9921875 135.23828125 C-18.25209503 135.246353 -19.51200256 135.25442474 -20.81008911 135.26274109 C-23.47124884 135.27654821 -26.13228616 135.28757505 -28.79345703 135.29516602 C-32.18494679 135.30623273 -35.57578096 135.34066037 -38.96703911 135.38033772 C-42.2253559 135.41291558 -45.4837327 135.4172902 -48.7421875 135.42578125 C-49.95075409 135.44328934 -51.15932068 135.46079742 -52.4045105 135.47883606 C-60.31483309 135.45855783 -65.90086249 134.60850715 -72.0234375 129.21875 C-72.46945312 128.6515625 -72.91546875 128.084375 -73.375 127.5 C-74.06722656 126.64921875 -74.06722656 126.64921875 -74.7734375 125.78125 C-78.3721964 120.55502689 -78.58897364 116.23732745 -78 110 C-76.25347196 103.55967786 -72.36110848 99.74480826 -67 96 C-66.34 96 -65.68 96 -65 96 C-65 95.34 -65 94.68 -65 94 C-65.86625 93.7215625 -65.86625 93.7215625 -66.75 93.4375 C-70.07142647 91.31547754 -71.69469351 88.6295512 -73 85 C-73.78664261 80.0205523 -73.60732918 76.23801717 -71.375 71.6875 C-67.69247733 67.52043487 -63.48673388 64.27876706 -59 61 C-59.9075 60.29875 -60.815 59.5975 -61.75 58.875 C-65.7073613 55.58187665 -68.36344145 51.90967565 -70 47 C-70.63393595 39.403161 -70.99469473 32.16576722 -66 26 C-57.93098114 18.02394219 -46.0571224 14.19985686 -34.87011719 13.92236328 C-30.36636921 14.00195134 -25.86909806 14.14015386 -21.36914062 14.34179688 C-14.37078625 14.58095832 -14.37078625 14.58095832 -8.01171875 12.05078125 C-4.14147707 8.40342999 -4.14147707 8.40342999 0 0 Z " fill="#5F19EB" transform="translate(1140,82)"/>
<path d="M0 0 C0.90714249 -0.0099852 1.81428497 -0.0199704 2.74891663 -0.03025818 C4.66093404 -0.04539565 6.57303015 -0.05248533 8.48510742 -0.05200195 C11.39830789 -0.05856705 14.30810436 -0.11310148 17.22070312 -0.16992188 C19.08462384 -0.17872468 20.94856063 -0.1846784 22.8125 -0.1875 C23.67624741 -0.20905655 24.53999481 -0.2306131 25.42991638 -0.25282288 C31.06303137 -0.18949218 34.0105967 1.02157096 38.10745239 4.90901184 C40.17303077 7.32211621 41.30499474 9.79192457 42.41015625 12.75390625 C42.81105469 13.7903125 43.21195312 14.82671875 43.625 15.89453125 C44.47265625 18.50390625 44.47265625 18.50390625 44.47265625 20.50390625 C46.45265625 20.99890625 46.45265625 20.99890625 48.47265625 21.50390625 C48.37984375 22.83421875 48.37984375 22.83421875 48.28515625 24.19140625 C48.26226931 27.94486406 49.07232253 31.30625603 49.97265625 34.94140625 C52.21287971 44.322342 52.21287971 44.322342 51.47265625 49.50390625 C49.16015625 52.50390625 49.16015625 52.50390625 46.47265625 54.50390625 C45.48265625 54.50390625 44.49265625 54.50390625 43.47265625 54.50390625 C43.49328125 55.80328125 43.51390625 57.10265625 43.53515625 58.44140625 C43.55665079 59.79556258 43.54413824 61.15146708 43.47265625 62.50390625 C42.47265625 63.50390625 42.47265625 63.50390625 40.1875 63.6015625 C39.27097656 63.58996094 38.35445312 63.57835937 37.41015625 63.56640625 C36.49105469 63.55738281 35.57195312 63.54835937 34.625 63.5390625 C33.91472656 63.52746094 33.20445313 63.51585937 32.47265625 63.50390625 C32.4815387 64.39482468 32.49042114 65.2857431 32.49957275 66.20365906 C32.57976339 74.60496673 32.6406434 83.00614563 32.67990494 91.40774822 C32.70076845 95.72699515 32.72906312 100.0459255 32.77441406 104.36499023 C32.81791652 108.5341636 32.84180266 112.70303271 32.85216522 116.87241554 C32.85954875 118.46204225 32.87396728 120.05165255 32.89557648 121.64114952 C32.92467033 123.87009875 32.92860996 126.09779535 32.92675781 128.3269043 C32.93564026 129.5948735 32.94452271 130.86284271 32.95367432 132.16923523 C32.38800909 136.090725 31.21105081 137.7017195 28.47265625 140.50390625 C24.99865221 143.01956435 21.6597355 142.87775261 17.47265625 142.50390625 C15.03515625 141.12890625 15.03515625 141.12890625 13.47265625 139.50390625 C13.47265625 138.84390625 13.47265625 138.18390625 13.47265625 137.50390625 C12.97636719 137.86484375 12.48007813 138.22578125 11.96875 138.59765625 C7.37537484 141.73544573 4.21176765 143.47847234 -1.52734375 142.50390625 C-5.57186803 140.07719168 -7.13337664 137.94021034 -8.52734375 133.50390625 C-8.76785278 130.24516296 -8.76785278 130.24516296 -8.75439453 126.51049805 C-8.75468658 125.82701797 -8.75497864 125.1435379 -8.75527954 124.43934631 C-8.75389292 122.19380734 -8.73836362 119.94860558 -8.72265625 117.703125 C-8.71892374 116.14085573 -8.71607789 114.5785841 -8.71408081 113.01631165 C-8.7064631 108.91455566 -8.68683071 104.81294245 -8.66467285 100.71124268 C-8.64417422 96.52170747 -8.63507052 92.33214908 -8.625 88.14257812 C-8.60358297 79.92962215 -8.56946963 71.71678199 -8.52734375 63.50390625 C-10.35265625 63.65859375 -10.35265625 63.65859375 -12.21484375 63.81640625 C-15.57151245 63.78523703 -16.50398906 63.51860298 -19.48364258 61.64355469 C-22.38749256 57.18249737 -22.26487858 53.49322521 -22.2265625 48.26953125 C-22.23729546 46.78063385 -22.23729546 46.78063385 -22.24824524 45.26165771 C-22.25601841 43.16370541 -22.25101827 41.06567217 -22.23413086 38.96777344 C-22.21498665 35.77771753 -22.25421142 32.59206867 -22.29882812 29.40234375 C-22.29911868 27.35807035 -22.29597368 25.31379299 -22.2890625 23.26953125 C-22.30434494 22.32547424 -22.31962738 21.38141724 -22.33537292 20.40875244 C-22.2135787 13.3882439 -20.29520424 8.70647959 -15.52734375 3.50390625 C-10.66456736 -0.04931613 -5.81380708 0.02241841 0 0 Z " fill="#ECE6F8" transform="translate(92.52734375,83.49609375)"/>
<path d="M0 0 C10.89 0 21.78 0 33 0 C33.33 20.46 33.66 40.92 34 62 C43.08020886 51.42138193 43.08020886 51.42138193 52.125 40.8125 C52.57875 40.28076172 53.0325 39.74902344 53.5 39.20117188 C55.48347211 36.86267 57.29611257 34.55583115 59 32 C61.83727325 31.73332461 64.45383045 31.65208766 67.2890625 31.70703125 C68.10748627 31.71127609 68.92591003 31.71552094 69.76913452 31.71989441 C72.38808836 31.73671321 75.00627802 31.77437026 77.625 31.8125 C79.3984264 31.82754274 81.17186484 31.84123186 82.9453125 31.85351562 C87.2971703 31.88662708 91.64845551 31.93843048 96 32 C94.47396585 35.21630141 92.90199229 37.28769299 90.3125 39.75 C87.05410373 42.92679063 84.02249152 46.18905204 81.078125 49.65625 C79.38180899 51.56938836 77.65017451 53.39616115 75.859375 55.21875 C75.30668945 55.79020752 74.75400391 56.36166504 74.18457031 56.95043945 C73.07606459 58.09348558 71.95580941 59.2252725 70.82324219 60.34448242 C67.83081129 63.40312653 67.83081129 63.40312653 66.86328125 67.4296875 C68.44848418 71.01409824 70.50067697 74.20173481 72.6875 77.4375 C73.68339438 78.94197897 74.67812564 80.44722833 75.671875 81.953125 C76.47334961 83.16258789 76.47334961 83.16258789 77.29101562 84.39648438 C80.39484971 89.1249539 83.41102614 93.9092975 86.4375 98.6875 C87.60218813 100.52516848 88.76751894 102.36242986 89.93359375 104.19921875 C90.46194824 105.03243652 90.99030273 105.8656543 91.53466797 106.72412109 C92.79452108 108.68086063 94.08975253 110.60352638 95.41015625 112.51953125 C97 115 97 115 97 117 C65.67140363 119.52846036 65.67140363 119.52846036 58.42626953 115.60693359 C54.86357993 112.07327976 53.2126837 107.81469268 51.72412109 103.09130859 C50.60913072 99.87114422 48.88630903 97.33502242 47 94.5 C46.46375 93.6234375 45.9275 92.746875 45.375 91.84375 C44.92125 91.2353125 44.4675 90.626875 44 90 C41.81622083 89.77256058 41.81622083 89.77256058 40.125 91.75 C39.42375 92.4925 38.7225 93.235 38 94 C36.70529025 95.37086915 35.37849103 96.71340837 34 98 C33.34 98 32.68 98 32 98 C32 104.27 32 110.54 32 117 C21.44 117 10.88 117 0 117 C0 78.39 0 39.78 0 0 Z " fill="#611BEB" transform="translate(642,66)"/>
<path d="M0 0 C10.13302148 6.81768727 15.61328906 15.27560587 18.4375 27.1875 C18.70084905 29.96544067 18.72406135 32.71125168 18.6875 35.5 C18.68073242 36.24765625 18.67396484 36.9953125 18.66699219 37.765625 C18.42053873 50.9938711 15.09647209 61.80966223 5.4375 71.1875 C-6.24055131 81.3817065 -21.65579526 83.13114896 -36.5625 82.1875 C-49.27803184 80.76739652 -59.83710705 76.77019138 -68.5625 67.1875 C-70.49003342 64.29619988 -72.06827184 61.32074586 -73.5625 58.1875 C-73.91570312 57.56230469 -74.26890625 56.93710938 -74.6328125 56.29296875 C-78.85841758 46.72321608 -77.97773017 31.26932967 -75.65625 21.29296875 C-74.49478422 18.39302695 -73.21094987 15.83726291 -71.5625 13.1875 C-71.12808594 12.44757813 -70.69367188 11.70765625 -70.24609375 10.9453125 C-63.65740319 0.99657747 -53.74100591 -2.99515298 -42.5625 -5.8125 C-41.93601562 -6.00457031 -41.30953125 -6.19664063 -40.6640625 -6.39453125 C-27.3896796 -9.03460369 -11.74699208 -6.61877348 0 0 Z " fill="#5F19EB" transform="translate(501.5625,102.8125)"/>
<path d="M0 0 C10.56 0 21.12 0 32 0 C32 12.87 32 25.74 32 39 C34.97 37.02 37.94 35.04 41 33 C50.52882264 28.07765239 60.64862371 27.3264823 70.875 30.5625 C77.04423619 33.13975005 81.27848491 36.53591153 84.27734375 42.5703125 C85.28319779 45.02588499 86.17963905 47.47716956 87 50 C87.33 50.99 87.66 51.98 88 53 C88.08911173 55.03966481 88.11760045 57.08217286 88.11352539 59.1237793 C88.11341209 61.01540047 88.11341209 61.01540047 88.11329651 62.94523621 C88.10818989 64.32156412 88.10297389 65.69789163 88.09765625 67.07421875 C88.09579086 68.48240611 88.09436753 69.89059411 88.09336853 71.29878235 C88.08955288 75.0026733 88.07973072 78.70652495 88.06866455 82.41040039 C88.05842997 86.19091246 88.05381172 89.97143108 88.04882812 93.75195312 C88.03863844 101.16800344 88.01906441 108.58394589 88 116 C77.44 116 66.88 116 56 116 C55.97421875 112.01550781 55.9484375 108.03101563 55.921875 103.92578125 C55.88346269 100.06674126 55.83829955 96.20783526 55.79248047 92.34887695 C55.76204491 89.66689575 55.74136468 86.98510248 55.72900391 84.30297852 C55.70759728 80.44764441 55.66095492 76.59331514 55.609375 72.73828125 C55.60814636 71.53915604 55.60691772 70.34003082 55.60565186 69.10456848 C55.543343 62.64300298 55.543343 62.64300298 53.14941406 56.76635742 C49.68066877 53.91579265 46.42075974 53.66217912 42 53.7109375 C38.83253774 54.16873478 37.1806131 55.75525122 35 58 C32.77316804 61.34024793 32.7347781 62.48366144 32.68115234 66.3894043 C32.66128265 67.49031906 32.64141296 68.59123383 32.62094116 69.72550964 C32.60361435 71.50687065 32.60361435 71.50687065 32.5859375 73.32421875 C32.56657135 74.54075638 32.5472052 75.75729401 32.5272522 77.01069641 C32.46738979 80.90289257 32.42104382 84.79511819 32.375 88.6875 C32.33682641 91.32358073 32.29777505 93.95964891 32.2578125 96.59570312 C32.16002804 103.0637374 32.08051027 109.53163512 32 116 C21.44 116 10.88 116 0 116 C0 77.72 0 39.44 0 0 Z " fill="#5E18EB" transform="translate(1178,67)"/>
<path d="M0 0 C9.13959097 10.01002821 8.77361081 21.08620395 8.72265625 33.90234375 C8.7207884 35.25997363 8.71936623 36.61760419 8.71836853 37.97523499 C8.71457222 41.52782084 8.70476696 45.08036504 8.69366455 48.63293457 C8.68338801 52.26635159 8.67880259 55.89977562 8.67382812 59.53320312 C8.66367402 66.64717206 8.64409507 73.76102699 8.625 80.875 C-1.935 80.875 -12.495 80.875 -23.375 80.875 C-23.42398438 76.87890625 -23.47296875 72.8828125 -23.5234375 68.765625 C-23.5774302 64.90002664 -23.63474451 61.03449083 -23.69238281 57.16894531 C-23.73178011 54.4801811 -23.76636788 51.7914185 -23.796875 49.10253906 C-23.84248377 45.24004669 -23.90048615 41.37791003 -23.9609375 37.515625 C-23.97248871 36.3113385 -23.98403992 35.107052 -23.99594116 33.86627197 C-24.01581085 32.74541199 -24.03568054 31.624552 -24.05615234 30.46972656 C-24.06947601 29.48377502 -24.08279968 28.49782349 -24.0965271 27.48199463 C-24.38744127 24.75852794 -24.87604353 23.15420996 -26.375 20.875 C-30.41814376 18.17957083 -33.62608711 18.21047635 -38.375 18.875 C-42.45642867 20.95281823 -44.7128648 22.62659353 -46.375 26.875 C-46.70002423 29.45889736 -46.70002423 29.45889736 -46.69384766 32.28613281 C-46.71371735 33.36695129 -46.73358704 34.44776978 -46.75405884 35.56134033 C-46.77138565 37.30214874 -46.77138565 37.30214874 -46.7890625 39.078125 C-46.80842865 40.27105164 -46.8277948 41.46397827 -46.8477478 42.6930542 C-46.90753267 46.50363004 -46.95392527 50.3142361 -47 54.125 C-47.03818072 56.70834652 -47.0772325 59.29168032 -47.1171875 61.875 C-47.21487286 68.20826722 -47.29445219 74.54139875 -47.375 80.875 C-57.935 80.875 -68.495 80.875 -79.375 80.875 C-79.375 52.825 -79.375 24.775 -79.375 -4.125 C-70.465 -4.125 -61.555 -4.125 -52.375 -4.125 C-52.045 -0.165 -51.715 3.795 -51.375 7.875 C-50.69695313 7.27171875 -50.01890625 6.6684375 -49.3203125 6.046875 C-34.57777737 -6.61291971 -17.29194201 -10.88751904 0 0 Z " fill="#5F18EB" transform="translate(891.375,102.125)"/>
<path d="M0 0 C3.82985426 3.27974792 6.76159897 7.04639588 8 12 C8 14.31 8 16.62 8 19 C-1.9 19 -11.8 19 -22 19 C-22.66 17.35 -23.32 15.7 -24 14 C-28.36282598 11.05762899 -31.80059337 10.45269404 -37 11 C-39.45948048 11.83583907 -41.65785157 12.85282526 -44 14 C-44 15.65 -44 17.3 -44 19 C-43.28569824 19.13051758 -42.57139648 19.26103516 -41.83544922 19.39550781 C-2.06215437 26.71323018 -2.06215437 26.71323018 7 37 C11.04326025 43.79424362 10.83023969 50.29633365 10 58 C8.17678799 64.45720919 4.87681226 69.0404585 -0.69921875 72.7578125 C-16.58188497 81.33283433 -36.2516665 82.58279946 -53.53100586 77.90454102 C-63.87004113 74.72972883 -70.91010145 69.53870301 -76 60 C-77 58 -77 58 -77 50 C-67.1 50 -57.2 50 -47 50 C-46.34 52.31 -45.68 54.62 -45 57 C-40.47833463 60.68872701 -35.48233909 60.32232563 -29.90234375 60.30078125 C-26.88407717 59.98798646 -24.68437545 59.40953765 -22 58 C-21.10613836 55.45224694 -21.10613836 55.45224694 -21 53 C-24.5212517 50.67287371 -27.42257405 49.48782338 -31.5703125 48.75390625 C-32.6325 48.55603516 -33.6946875 48.35816406 -34.7890625 48.15429688 C-35.88992188 47.95900391 -36.99078125 47.76371094 -38.125 47.5625 C-63.25431873 43.09873944 -63.25431873 43.09873944 -71.34375 33.38671875 C-75.95719836 26.74664843 -75.5985523 19.80720394 -75 12 C-73.31445951 5.25783805 -68.51277177 0.93020801 -63 -3 C-60.50758501 -4.3683847 -58.65896103 -5.20381393 -56 -6 C-55.09894531 -6.27714844 -54.19789063 -6.55429688 -53.26953125 -6.83984375 C-35.16753916 -11.71951118 -15.9799331 -10.01274289 0 0 Z " fill="#601AEB" transform="translate(992,105)"/>
<path d="M0 0 C5.98536446 4.282292 10.21569966 9.6215121 12.375 16.69921875 C12.87 22.14421875 12.87 22.14421875 13.375 27.69921875 C3.145 27.69921875 -7.085 27.69921875 -17.625 27.69921875 C-18.615 24.72921875 -19.605 21.75921875 -20.625 18.69921875 C-25.79749912 14.56121946 -31.23522722 14.12604976 -37.625 14.69921875 C-41.38522336 15.54923093 -43.97235587 16.80107064 -46.296875 20 C-48.29239047 25.55809749 -48.05822834 30.90330085 -48 36.76171875 C-48.01160156 37.93283203 -48.02320313 39.10394531 -48.03515625 40.31054688 C-48.02935547 42.0053418 -48.02935547 42.0053418 -48.0234375 43.734375 C-48.02005371 44.75926025 -48.01666992 45.78414551 -48.01318359 46.84008789 C-47.42726292 51.15563321 -45.76127024 53.79926121 -42.37109375 56.484375 C-36.08283175 59.2662377 -28.27071436 58.68575631 -21.9375 56.32421875 C-18.64231249 52.95202045 -18.64231249 52.95202045 -16.625 43.69921875 C-6.725 43.69921875 3.175 43.69921875 13.375 43.69921875 C13.375 54.49255953 11.20472313 61.90697394 3.64453125 69.76171875 C-8.45881754 80.09435387 -25.38415542 81.73005406 -40.625 80.69921875 C-53.33176805 79.31420892 -63.91426047 75.26581696 -72.625 65.69921875 C-74.55253342 62.80791863 -76.13077184 59.83246461 -77.625 56.69921875 C-77.97820313 56.07402344 -78.33140625 55.44882813 -78.6953125 54.8046875 C-82.92091758 45.23493483 -82.04023017 29.78104842 -79.71875 19.8046875 C-78.55728422 16.9047457 -77.27344987 14.34898166 -75.625 11.69921875 C-75.19058594 10.95929688 -74.75617187 10.219375 -74.30859375 9.45703125 C-67.71990319 -0.49170378 -57.80350591 -4.48343423 -46.625 -7.30078125 C-45.98844482 -7.47585205 -45.35188965 -7.65092285 -44.69604492 -7.83129883 C-29.91164677 -11.1827544 -12.82106287 -7.57434815 0 0 Z " fill="#601AEB" transform="translate(612.625,104.30078125)"/>
<path d="M0 0 C7.92 0 15.84 0 24 0 C24 8.25 24 16.5 24 25 C29.94 25 35.88 25 42 25 C42 32.26 42 39.52 42 47 C36.06 47 30.12 47 24 47 C24.09708877 52.03584129 24.19991305 57.07088889 24.31738281 62.10620117 C24.35559285 63.81804314 24.39045952 65.52996322 24.421875 67.24194336 C24.46769938 69.70715183 24.52566413 72.17182633 24.5859375 74.63671875 C24.59748871 75.39836838 24.60903992 76.16001801 24.62094116 76.94474792 C24.73339092 81.02157871 25.048511 84.37834505 27 88 C29.83269666 89.41634833 32.47466438 89.3463005 35.625 89.5625 C37.72875 89.706875 39.8325 89.85125 42 90 C42 96.27 42 102.54 42 109 C29.87579868 113.2171135 15.12147145 114.48741934 3.1015625 109.203125 C-1.62726025 106.49591793 -4.58855253 102.82289493 -7 98 C-7.80305976 94.68546594 -8.12290447 91.61432432 -8.11352539 88.2097168 C-8.11344986 87.28913986 -8.11337433 86.36856293 -8.11329651 85.42008972 C-8.10813522 84.4397023 -8.10297394 83.45931488 -8.09765625 82.44921875 C-8.0962413 81.43527542 -8.09482635 80.42133209 -8.09336853 79.37666321 C-8.08778328 76.14691179 -8.07523345 72.91723038 -8.0625 69.6875 C-8.0574831 67.49414163 -8.05292052 65.30078217 -8.04882812 63.10742188 C-8.03781867 57.73825439 -8.02056414 52.36913905 -8 47 C-11.63 47 -15.26 47 -19 47 C-19 39.74 -19 32.48 -19 25 C-14.71 25 -10.42 25 -6 25 C-5.62875 22.710625 -5.62875 22.710625 -5.25 20.375 C-4.00009319 13.42805416 -2.00865188 6.76246133 0 0 Z " fill="#5F19EB" transform="translate(1299,73)"/>
<path d="M0 0 C11.88 0 23.76 0 36 0 C36 36.63 36 73.26 36 111 C24.12 111 12.24 111 0 111 C0 74.37 0 37.74 0 0 Z " fill="#611BEB" transform="translate(753,72)"/>
<path d="M0 0 C10.56 0 21.12 0 32 0 C32 28.05 32 56.1 32 85 C21.44 85 10.88 85 0 85 C0 56.95 0 28.9 0 0 Z " fill="#5F19EB" transform="translate(1018,98)"/>
<path d="M0 0 C1.32685318 -0.01429802 1.32685318 -0.01429802 2.68051147 -0.02888489 C3.63366241 -0.02797348 4.58681335 -0.02706207 5.56884766 -0.02612305 C7.04292587 -0.03255074 7.04292587 -0.03255074 8.54678345 -0.03910828 C10.62639597 -0.04485295 12.70602859 -0.04535083 14.78564453 -0.04101562 C17.9637292 -0.03786084 21.14087846 -0.06129544 24.31884766 -0.08666992 C26.33967982 -0.08894345 28.36051448 -0.08964616 30.38134766 -0.08862305 C31.80500137 -0.10243767 31.80500137 -0.10243767 33.25741577 -0.11653137 C41.79516328 -0.05683731 41.79516328 -0.05683731 45.60791016 3.2746582 C49.75089374 8.67758921 49.08663706 14.17956841 49.04541016 20.7121582 C49.07538086 22.39148437 49.07538086 22.39148437 49.10595703 24.10473633 C49.09968365 34.67538928 49.09968365 34.67538928 44.60791016 39.2746582 C40.58834254 41.33732524 37.28190484 41.48109121 32.80322266 41.4074707 C31.49740234 41.41004883 30.19158203 41.41262695 28.84619141 41.4152832 C26.78925466 41.41332188 24.73516476 41.39970858 22.67871094 41.35375977 C14.4255408 40.97750113 14.4255408 40.97750113 7.10302734 44.11352539 C5.37239263 46.0897761 3.92644807 48.00666993 2.60791016 50.2746582 C1.28791016 49.9446582 -0.03208984 49.6146582 -1.39208984 49.2746582 C-1.72208984 46.3046582 -2.05208984 43.3346582 -2.39208984 40.2746582 C-3.53677734 40.1818457 -3.53677734 40.1818457 -4.70458984 40.0871582 C-7.39208984 39.2746582 -7.39208984 39.2746582 -9.03515625 37.11254883 C-10.59543675 33.84937852 -10.77916366 31.65981958 -10.79052734 28.0559082 C-10.79439453 26.87641602 -10.79826172 25.69692383 -10.80224609 24.48168945 C-10.79064453 23.25836914 -10.77904297 22.03504883 -10.76708984 20.7746582 C-10.77869141 19.55133789 -10.79029297 18.32801758 -10.80224609 17.06762695 C-10.79837891 15.88813477 -10.79451172 14.70864258 -10.79052734 13.4934082 C-10.78714355 12.42026367 -10.78375977 11.34711914 -10.78027344 10.24145508 C-10.33723627 6.85542508 -9.41967428 5.00192303 -7.39208984 2.2746582 C-4.27014738 0.19336323 -3.55080421 0.02103693 0 0 Z " fill="#9A5AE4" transform="translate(137.39208984375,36.725341796875)"/>
<path d="M0 0 C0.79949066 -0.00145523 1.59898132 -0.00291046 2.42269897 -0.00440979 C4.10182362 -0.00275923 5.78096474 0.00870699 7.45996094 0.02954102 C10.02344119 0.05859379 12.58486189 0.05011373 15.1484375 0.03710938 C16.78646833 0.04334505 18.42449268 0.05173466 20.0625 0.0625 C20.82406403 0.05956436 21.58562805 0.05662872 22.37026978 0.05360413 C26.89339387 0.13353222 29.83293634 0.66064844 33.3984375 3.49609375 C36.3984375 7.49609375 36.3984375 7.49609375 39.3984375 17.49609375 C31.1484375 17.49609375 22.8984375 17.49609375 14.3984375 17.49609375 C14.2128125 20.34234375 14.2128125 20.34234375 14.0234375 23.24609375 C13.53032757 29.75657416 12.55921433 36.07312863 11.3984375 42.49609375 C5.4584375 42.49609375 -0.4815625 42.49609375 -6.6015625 42.49609375 C-6.6015625 36.22609375 -6.6015625 29.95609375 -6.6015625 23.49609375 C-7.5915625 23.49609375 -8.5815625 23.49609375 -9.6015625 23.49609375 C-9.2715625 30.75609375 -8.9415625 38.01609375 -8.6015625 45.49609375 C-2.3315625 45.82609375 3.9384375 46.15609375 10.3984375 46.49609375 C10.0684375 50.12609375 9.7384375 53.75609375 9.3984375 57.49609375 C5.10682703 57.55393217 0.81531605 57.58963495 -3.4765625 57.62109375 C-4.69988281 57.63785156 -5.92320313 57.65460938 -7.18359375 57.671875 C-8.93349609 57.68154297 -8.93349609 57.68154297 -10.71875 57.69140625 C-11.79753418 57.70187988 -12.87631836 57.71235352 -13.98779297 57.72314453 C-16.6015625 57.49609375 -16.6015625 57.49609375 -18.6015625 55.49609375 C-18.86225891 53.58758545 -18.86225891 53.58758545 -18.8762207 51.23339844 C-18.88575272 50.35198181 -18.89528473 49.47056519 -18.90510559 48.56243896 C-18.90419418 47.60726379 -18.90328278 46.65208862 -18.90234375 45.66796875 C-18.90662888 44.68620667 -18.910914 43.70444458 -18.91532898 42.69293213 C-18.92108045 40.61153942 -18.92156656 38.53012661 -18.91723633 36.44873047 C-18.91408893 33.27275909 -18.93748181 30.09773025 -18.96289062 26.921875 C-18.96516487 24.89974076 -18.96586653 22.87760401 -18.96484375 20.85546875 C-18.9740535 19.9083905 -18.98326324 18.96131226 -18.99275208 17.98553467 C-18.95660773 12.79769589 -18.78276338 8.81989859 -15.6015625 4.49609375 C-10.38676583 0.61551222 -6.38795297 -0.09473353 0 0 Z " fill="#8C5DE9" transform="translate(93.6015625,86.50390625)"/>
<path d="M0 0 C3.9323173 2.65202795 6.18648186 5.30944559 7.6875 9.8125 C7.94501975 13.57892138 7.91887301 17.35070624 7.9375 21.125 C7.958125 22.15818359 7.97875 23.19136719 8 24.25585938 C8.03552221 31.17824921 7.31540661 35.6759663 2.75 41.125 C-1.39187083 44.51380341 -6.46244747 44.14873389 -11.6171875 44.09375 C-15.4434037 43.69449266 -17.51130121 42.40360888 -20.3125 39.8125 C-24.38864241 34.12312635 -23.79111243 28.70236308 -23.75 21.9375 C-23.7799707 20.19919922 -23.7799707 20.19919922 -23.81054688 18.42578125 C-23.80670234 11.69784193 -23.49042365 7.20021809 -19.3125 1.8125 C-13.10438548 -1.96105981 -6.76153198 -2.42394543 0 0 Z " fill="#FDFCFE" transform="translate(480.3125,119.1875)"/>
<path d="M0 0 C5.28 0 10.56 0 16 0 C16.11302783 9.04048746 16.20473079 18.08050458 16.25906086 27.12153912 C16.28513862 31.31981881 16.32050223 35.51758945 16.37719727 39.71557617 C16.43158381 43.76805932 16.46143425 47.82005333 16.47438622 51.87287331 C16.48361434 53.41787223 16.50163536 54.96284483 16.52865028 56.50763512 C16.56503239 58.67453914 16.56994204 60.83943076 16.56762695 63.0065918 C16.57873001 64.23903122 16.58983307 65.47147064 16.60127258 66.74125671 C15.82967857 70.92309848 14.29452123 72.39747227 11 75 C7.9375 75.5625 7.9375 75.5625 5 75 C2.69724444 73.1329009 1.32176129 71.64352259 0 69 C-0.09188942 66.81459189 -0.11750236 64.62630031 -0.11352539 62.43896484 C-0.11367142 61.76567642 -0.11381744 61.092388 -0.1139679 60.3986969 C-0.11327027 58.16941119 -0.10548489 55.94020865 -0.09765625 53.7109375 C-0.09579154 52.16679937 -0.09436789 50.62266066 -0.09336853 49.07852173 C-0.08954754 45.01129528 -0.07972082 40.94410445 -0.06866455 36.87689209 C-0.05844144 32.7278288 -0.05386898 28.57875975 -0.04882812 24.4296875 C-0.03809819 16.28644015 -0.02050476 8.14322861 0 0 Z " fill="#7D65EF" transform="translate(106,147)"/>
<path d="M0 0 C4.95 0 9.9 0 15 0 C15.11302783 9.04048746 15.20473079 18.08050458 15.25906086 27.12153912 C15.28513862 31.31981881 15.32050223 35.51758945 15.37719727 39.71557617 C15.43158381 43.76805932 15.46143425 47.82005333 15.47438622 51.87287331 C15.48361434 53.41787223 15.50163536 54.96284483 15.52865028 56.50763512 C15.56503239 58.67453914 15.56994204 60.83943076 15.56762695 63.0065918 C15.57873001 64.23903122 15.58983307 65.47147064 15.60127258 66.74125671 C14.82967857 70.92309848 13.29452123 72.39747227 10 75 C6.9375 75.5625 6.9375 75.5625 4 75 C0.977972 72.75729253 0.0888049 71.58643233 -0.48101807 67.82354736 C-0.47213562 66.57112244 -0.46325317 65.31869751 -0.45410156 64.02832031 C-0.45468567 63.3352327 -0.45526978 62.64214508 -0.45587158 61.92805481 C-0.45309169 59.64422985 -0.42200707 57.36172103 -0.390625 55.078125 C-0.3831622 53.49201165 -0.37746945 51.90588906 -0.37347412 50.31976318 C-0.35822065 46.15039497 -0.31894187 41.98158644 -0.2746582 37.81243896 C-0.23369898 33.55602591 -0.21546175 29.29952219 -0.1953125 25.04296875 C-0.15244668 16.69502735 -0.08209973 8.34764784 0 0 Z " fill="#785FEF" transform="translate(88,147)"/>
<path d="M0 0 C5.12093367 2.32338657 8.36529731 5.15637586 10.921875 10.26953125 C11.64098296 17.37809026 11.43580388 22.59818471 6.921875 28.26953125 C1.93362704 32.23976943 -2.15608437 32.91273155 -8.4921875 32.65234375 C-13.75572432 31.87314948 -16.28235774 29.32338518 -19.390625 25.20703125 C-21.99416386 20.67494508 -23.03821647 16.44848617 -22.078125 11.26953125 C-17.80496144 2.83003322 -9.74095234 -3.42398137 0 0 Z " fill="#975AE5" transform="translate(107.078125,48.73046875)"/>
<path d="M0 0 C0.66 0 1.32 0 2 0 C2 1.98 2 3.96 2 6 C-1.3 6 -4.6 6 -8 6 C-7.99111755 6.89091843 -7.98223511 7.78183685 -7.9730835 8.69975281 C-7.89289286 17.10106048 -7.83201285 25.50223938 -7.79275131 33.90384197 C-7.7718878 38.2230889 -7.74359313 42.54201925 -7.69824219 46.86108398 C-7.65473973 51.03025735 -7.63085359 55.19912646 -7.62049103 59.36850929 C-7.6131075 60.958136 -7.59868897 62.5477463 -7.57707977 64.13724327 C-7.54798592 66.3661925 -7.54404629 68.5938891 -7.54589844 70.82299805 C-7.53701599 72.09096725 -7.52813354 73.35893646 -7.51898193 74.66532898 C-8.08464716 78.58681875 -9.26160544 80.19781325 -12 83 C-15.47400404 85.5156581 -18.81292075 85.37384636 -23 85 C-25.4375 83.625 -25.4375 83.625 -27 82 C-27 81.34 -27 80.68 -27 80 C-27.49628906 80.3609375 -27.99257812 80.721875 -28.50390625 81.09375 C-33.09728141 84.23153948 -36.2608886 85.97456609 -42 85 C-44.75329021 83.20437595 -46.52627461 81.94745078 -48 79 C-48.09208458 76.72273826 -48.11749598 74.44269353 -48.11352539 72.16357422 C-48.11374443 71.10975052 -48.11374443 71.10975052 -48.1139679 70.03463745 C-48.11327014 67.70795627 -48.10548419 65.38135473 -48.09765625 63.0546875 C-48.09579158 61.44328861 -48.09436791 59.83188916 -48.09336853 58.2204895 C-48.0895472 53.97571248 -48.07972018 49.73096958 -48.06866455 45.48620605 C-48.05844218 41.15617332 -48.05386914 36.82613507 -48.04882812 32.49609375 C-48.03809758 23.99738016 -48.02102575 15.49869432 -48 7 C-47.34 6.67 -46.68 6.34 -46 6 C-45.99635437 6.8533342 -45.99270874 7.7066684 -45.98895264 8.58586121 C-45.95105999 16.63426684 -45.89419296 24.68226777 -45.81609726 32.73038769 C-45.77661568 36.86788184 -45.74443073 41.00516295 -45.72900391 45.14282227 C-45.7138415 49.13718211 -45.67940423 53.13095631 -45.63169098 57.12505531 C-45.61687273 58.64759539 -45.60895872 60.17021909 -45.60811615 61.69283104 C-45.60574588 63.82864935 -45.5786662 65.9628499 -45.54589844 68.09838867 C-45.53701599 69.3130632 -45.52813354 70.52773773 -45.51898193 71.77922058 C-44.90037142 75.61829063 -43.76137814 77.30219515 -41 80 C-38 80.75 -38 80.75 -35 80 C-32.01011173 77.7712913 -31.09593639 76.58016527 -30.48101807 72.86151123 C-30.47213562 71.6268512 -30.46325317 70.39219116 -30.45410156 69.12011719 C-30.44376389 68.43678314 -30.43342621 67.7534491 -30.42277527 67.04940796 C-30.39335644 64.79832285 -30.3918484 62.5481372 -30.390625 60.296875 C-30.37564259 58.73315721 -30.35891531 57.16945524 -30.34051514 55.60577393 C-30.29683557 51.4958422 -30.27684139 47.38612393 -30.26177979 43.27600098 C-30.24221073 39.07970555 -30.20024055 34.88364073 -30.16015625 30.6875 C-30.08484768 22.45839366 -30.03456037 14.22937787 -30 6 C-29.01 6 -28.02 6 -27 6 C-26.98786972 7.28333221 -26.98786972 7.28333221 -26.97549438 8.59259033 C-26.89754935 16.65592091 -26.81025889 24.71908451 -26.71247292 32.78219986 C-26.66252988 36.92751978 -26.6161997 41.07281446 -26.578125 45.21826172 C-26.54124695 49.21894987 -26.49488023 53.21942588 -26.44193649 57.21993256 C-26.42340592 58.74610421 -26.408293 60.27232131 -26.39665604 61.7985611 C-26.37977048 63.93656634 -26.35073071 66.07408715 -26.31884766 68.21191406 C-26.30552399 69.4288092 -26.29220032 70.64570435 -26.2784729 71.8994751 C-26.01272023 74.85837257 -25.6473111 76.55789804 -24 79 C-21.15916359 80.42041821 -19.14522722 80.31452272 -16 80 C-12.9701449 77.77961225 -12.09261939 76.56688122 -11.48101807 72.82354736 C-11.4676944 70.94490997 -11.4676944 70.94490997 -11.45410156 69.02832031 C-11.44376389 68.3352327 -11.43342621 67.64214508 -11.42277527 66.92805481 C-11.39335304 64.64450757 -11.39184832 62.36184687 -11.390625 60.078125 C-11.37564283 58.4919872 -11.3589156 56.90586501 -11.34051514 55.31976318 C-11.29683293 51.15064781 -11.27684079 46.98174288 -11.26177979 42.81243896 C-11.2422117 38.55582227 -11.20024141 34.29943294 -11.16015625 30.04296875 C-11.08484454 21.69534414 -11.03663015 13.34788407 -11 5 C-15.29 5 -19.58 5 -24 5 C-24 4.34 -24 3.68 -24 3 C-16.41 2.67 -8.82 2.34 -1 2 C-0.67 1.34 -0.34 0.68 0 0 Z " fill="#FAF8FC" transform="translate(133,141)"/>
<path d="M0 0 C8.58 0 17.16 0 26 0 C25.34 4.62 24.68 9.24 24 14 C20.94010417 14.9765625 17.88020833 15.953125 14.8203125 16.9296875 C11.91477277 17.81175231 11.91477277 17.81175231 10 20 C9.329282 25.37290929 9.329282 25.37290929 11.5 30 C15.12079138 31.44831655 18.11283436 31.19435828 22 31 C21.67 32.65 21.34 34.3 21 36 C12.75 36 4.5 36 -4 36 C-4 31.09746908 -3.98390834 26.86605588 -3.37890625 22.109375 C-3.18264648 20.55089844 -3.18264648 20.55089844 -2.98242188 18.9609375 C-2.84384766 17.90132812 -2.70527344 16.84171875 -2.5625 15.75 C-2.42779297 14.67492187 -2.29308594 13.59984375 -2.15429688 12.4921875 C-1.61047619 8.23712224 -1.04196244 4.16784976 0 0 Z " fill="#8A61EA" transform="translate(111,108)"/>
<path d="M0 0 C1.32685318 -0.01429802 1.32685318 -0.01429802 2.68051147 -0.02888489 C3.63366241 -0.02797348 4.58681335 -0.02706207 5.56884766 -0.02612305 C7.04292587 -0.03255074 7.04292587 -0.03255074 8.54678345 -0.03910828 C10.62639597 -0.04485295 12.70602859 -0.04535083 14.78564453 -0.04101562 C17.9637292 -0.03786084 21.14087846 -0.06129544 24.31884766 -0.08666992 C26.33967982 -0.08894345 28.36051448 -0.08964616 30.38134766 -0.08862305 C31.80500137 -0.10243767 31.80500137 -0.10243767 33.25741577 -0.11653137 C41.79516328 -0.05683731 41.79516328 -0.05683731 45.60791016 3.2746582 C49.75089374 8.67758921 49.08663706 14.17956841 49.04541016 20.7121582 C49.07538086 22.39148437 49.07538086 22.39148437 49.10595703 24.10473633 C49.09968365 34.67538928 49.09968365 34.67538928 44.60791016 39.2746582 C40.58834254 41.33732524 37.28190484 41.48109121 32.80322266 41.4074707 C31.49740234 41.41004883 30.19158203 41.41262695 28.84619141 41.4152832 C26.78925466 41.41332188 24.73516476 41.39970858 22.67871094 41.35375977 C14.4255408 40.97750113 14.4255408 40.97750113 7.10302734 44.11352539 C5.37239263 46.0897761 3.92644807 48.00666993 2.60791016 50.2746582 C1.28791016 49.9446582 -0.03208984 49.6146582 -1.39208984 49.2746582 C-1.72208984 46.3046582 -2.05208984 43.3346582 -2.39208984 40.2746582 C-3.53677734 40.1818457 -3.53677734 40.1818457 -4.70458984 40.0871582 C-7.39208984 39.2746582 -7.39208984 39.2746582 -9.03515625 37.11254883 C-10.59543675 33.84937852 -10.77916366 31.65981958 -10.79052734 28.0559082 C-10.79439453 26.87641602 -10.79826172 25.69692383 -10.80224609 24.48168945 C-10.79064453 23.25836914 -10.77904297 22.03504883 -10.76708984 20.7746582 C-10.77869141 19.55133789 -10.79029297 18.32801758 -10.80224609 17.06762695 C-10.79837891 15.88813477 -10.79451172 14.70864258 -10.79052734 13.4934082 C-10.78714355 12.42026367 -10.78375977 11.34711914 -10.78027344 10.24145508 C-10.33723627 6.85542508 -9.41967428 5.00192303 -7.39208984 2.2746582 C-4.27014738 0.19336323 -3.55080421 0.02103693 0 0 Z M-6.39208984 7.2746582 C-6.85563917 10.12808278 -6.85563917 10.12808278 -6.79052734 13.3684082 C-6.79439453 14.56336914 -6.79826172 15.75833008 -6.80224609 16.98950195 C-6.79064453 18.23860352 -6.77904297 19.48770508 -6.76708984 20.7746582 C-6.77869141 22.02375977 -6.79029297 23.27286133 -6.80224609 24.55981445 C-6.79837891 25.75477539 -6.79451172 26.94973633 -6.79052734 28.1809082 C-6.78714355 29.27725586 -6.78375977 30.37360352 -6.78027344 31.50317383 C-6.61996089 34.28263307 -6.61996089 34.28263307 -5.00390625 36.11254883 C-3.15813286 37.4433397 -1.62121268 37.89032668 0.60791016 38.2746582 C0.93791016 40.2546582 1.26791016 42.2346582 1.60791016 44.2746582 C2.42904297 43.29754883 3.25017578 42.32043945 4.09619141 41.3137207 C9.83984832 36.38976011 17.65393197 37.53591273 24.79541016 37.6496582 C26.99018245 37.67375804 29.18359664 37.68887917 31.37849426 37.68008423 C33.36150661 37.67343718 35.34455034 37.69853139 37.32739258 37.7253418 C40.63532731 37.52001397 40.63532731 37.52001397 43.02124023 35.62304688 C45.0228973 32.66044658 45.12384977 30.86248644 45.13916016 27.30200195 C45.14431641 26.15538086 45.14947266 25.00875977 45.15478516 23.82739258 C45.13931641 22.63436523 45.12384766 21.44133789 45.10791016 20.2121582 C45.12337891 19.01526367 45.13884766 17.81836914 45.15478516 16.58520508 C45.14705078 14.86720703 45.14705078 14.86720703 45.13916016 13.11450195 C45.13464844 12.06641357 45.13013672 11.0183252 45.12548828 9.93847656 C44.80969913 7.253641 44.80969913 7.253641 43.1940918 5.43457031 C39.11206915 3.60376793 35.12097034 3.84741212 30.69775391 3.8762207 C29.73390274 3.87335052 28.77005157 3.87048035 27.7769928 3.86752319 C25.74202893 3.86548387 23.70704539 3.87100449 21.67211914 3.88354492 C18.55326678 3.89961771 15.43570691 3.88368254 12.31689453 3.86450195 C10.33967812 3.86648406 8.36246252 3.87032708 6.38525391 3.8762207 C5.45083969 3.87014801 4.51642548 3.86407532 3.55369568 3.8578186 C2.25203209 3.87200333 2.25203209 3.87200333 0.92407227 3.88647461 C0.16114365 3.88886139 -0.60178497 3.89124817 -1.38783264 3.89370728 C-3.94326945 4.37942139 -4.83204528 5.22408622 -6.39208984 7.2746582 Z " fill="#E5D8F2" transform="translate(137.39208984375,36.725341796875)"/>
<path d="M0 0 C10.56 0 21.12 0 32 0 C32 6.93 32 13.86 32 21 C21.44 21 10.88 21 0 21 C0 14.07 0 7.14 0 0 Z " fill="#5F18EB" transform="translate(1018,67)"/>
<path d="M0 0 C0.66914429 -0.00004028 1.33828857 -0.00008057 2.02770996 -0.00012207 C3.43637533 0.00521721 4.84504154 0.02273242 6.25341797 0.05175781 C8.40034748 0.09363487 10.5441368 0.09282135 12.69140625 0.0859375 C25.49625282 0.18375282 25.49625282 0.18375282 29.90625 4.59375 C30.49613764 10.84655899 30.49613764 10.84655899 28.03125 13.96875 C22.93899271 17.86282911 16.88202319 16.85509351 10.73046875 16.88891602 C8.5462369 16.90613187 6.36351825 16.95002034 4.1796875 16.99414062 C2.78907362 17.00426777 1.39844689 17.01278381 0.0078125 17.01953125 C-1.25724121 17.03411377 -2.52229492 17.04869629 -3.82568359 17.0637207 C-7.09375 16.59375 -7.09375 16.59375 -9.47119141 14.78198242 C-11.79236378 11.65157797 -12.16181298 9.47334011 -12.09375 5.59375 C-8.43115234 0.82022224 -5.92261081 -0.03384349 0 0 Z " fill="#FCFAFE" transform="translate(1104.09375,182.40625)"/>
<path d="M0 0 C0.69738281 0.00902344 1.39476562 0.01804688 2.11328125 0.02734375 C3.82566958 0.05080112 5.53788004 0.08666896 7.25 0.125 C7.08757812 0.87523437 6.92515625 1.62546875 6.7578125 2.3984375 C5.93165711 6.83425643 5.81904969 10.83214908 7.25 15.125 C6.59 15.125 5.93 15.125 5.25 15.125 C5.146875 15.66125 5.04375 16.1975 4.9375 16.75 C4.25 19.125 4.25 19.125 2.75 22 C1.25217064 25.12047783 0.65681373 27.70776463 0.25 31.125 C0.91 31.125 1.57 31.125 2.25 31.125 C1.90120368 34.38043229 1.22866739 35.14373107 -1.3125 37.375 C-2.116875 37.9525 -2.92125 38.53 -3.75 39.125 C-3.811875 38.17625 -3.87375 37.2275 -3.9375 36.25 C-4.205625 35.21875 -4.47375 34.1875 -4.75 33.125 C-7.14529669 31.80018454 -7.14529669 31.80018454 -9.75 31.125 C-11.75 29.125 -11.75 29.125 -11.97705078 26.41943359 C-11.96657715 25.29875488 -11.95610352 24.17807617 -11.9453125 23.0234375 C-11.93886719 21.81171875 -11.93242187 20.6 -11.92578125 19.3515625 C-11.90902344 18.08054687 -11.89226562 16.80953125 -11.875 15.5 C-11.86146484 13.581875 -11.86146484 13.581875 -11.84765625 11.625 C-11.82402303 8.45814833 -11.79107629 5.29166576 -11.75 2.125 C-7.81138704 -0.07241148 -4.42216409 -0.10867322 0 0 Z " fill="#9755E5" transform="translate(142.75,41.875)"/>
<path d="M0 0 C0.66 0.33 1.32 0.66 2 1 C2 1.66 2 2.32 2 3 C3.32 3.33 4.64 3.66 6 4 C5.9071875 5.3303125 5.9071875 5.3303125 5.8125 6.6875 C5.78961306 10.44095781 6.59966628 13.80234978 7.5 17.4375 C9.74022346 26.81843575 9.74022346 26.81843575 9 32 C6.6875 35 6.6875 35 4 37 C3.01 37 2.02 37 1 37 C1 39.64 1 42.28 1 45 C0.67 45 0.34 45 0 45 C0 43.35 0 41.7 0 40 C-0.66 40 -1.32 40 -2 40 C-2 39.34 -2 38.68 -2 38 C-3.216875 38.2475 -4.43375 38.495 -5.6875 38.75 C-8.95788312 39.13919302 -9.90028268 39.04778122 -13 37.5625 C-15.08186837 34.89510615 -15.35714404 34.16366385 -15.5 30.9375 C-14.90566038 26.25707547 -14.90566038 26.25707547 -12 24 C-9.84375 23.05078125 -9.84375 23.05078125 -7.5 22.3125 C-6.7265625 22.06113281 -5.953125 21.80976562 -5.15625 21.55078125 C-3 21 -3 21 0 21 C0.06058594 20.16855469 0.12117188 19.33710937 0.18359375 18.48046875 C0.26738281 17.39378906 0.35117188 16.30710937 0.4375 15.1875 C0.51871094 14.10855469 0.59992188 13.02960938 0.68359375 11.91796875 C1 9 1 9 2 6 C-6.58 6 -15.16 6 -24 6 C-23.67 5.34 -23.34 4.68 -23 4 C-15.74 4 -8.48 4 -1 4 C-0.67 2.68 -0.34 1.36 0 0 Z " fill="#F1ECF7" transform="translate(135,101)"/>
<path d="M0 0 C3.11326625 1.31117601 5.45304576 2.90609152 7 6 C7.34411038 11.24768331 7.5679453 14.81689172 4 19 C-0.40339541 21.80216072 -5.9544653 21.68765087 -11 21 C-14.55680172 18.89495409 -15.69468936 17.91593192 -17 14 C-17.6914329 6.85519333 -17.6914329 6.85519333 -14.625 3.0625 C-9.92758028 -0.62832978 -5.84875223 -0.67175562 0 0 Z " fill="#FBF9FE" transform="translate(1118,113)"/>
<path d="M0 0 C3.3125 1.875 3.3125 1.875 5 5 C5.65262133 8.3395857 5.92739844 11.60092701 6 15 C8.97 15 11.94 15 15 15 C15 15.33 15 15.66 15 16 C-1.335 16.495 -1.335 16.495 -18 17 C-18 16.34 -18 15.68 -18 15 C-18.66 15 -19.32 15 -20 15 C-19.87672939 9.9571113 -19.64395263 4.89962402 -15.98828125 1.0390625 C-11.1088114 -1.51091585 -5.27456705 -0.8129261 0 0 Z " fill="#9860E1" transform="translate(163,58)"/>
<path d="M0 0 C6.62007209 -0.12674312 13.23983157 -0.21432681 19.86083984 -0.2746582 C22.11323743 -0.29980743 24.36555336 -0.33393118 26.61767578 -0.37719727 C29.854697 -0.437829 33.09063972 -0.46620592 36.328125 -0.48828125 C37.33554749 -0.51408768 38.34296997 -0.5398941 39.38092041 -0.56648254 C46.38361639 -0.56929394 46.38361639 -0.56929394 49.60449219 2.40551758 C52.62972589 8.02993299 52.25909231 12.90516691 52.3125 19.25 C52.34150391 20.38308594 52.37050781 21.51617187 52.40039062 22.68359375 C52.4489642 29.05794162 52.43721589 33.22525934 48 38 C44.93405406 39.53297297 41.72888147 39.12131455 38.3671875 39.09765625 C37.61535187 39.0962413 36.86351624 39.09482635 36.08889771 39.09336853 C33.6842249 39.08776465 31.27964473 39.07521157 28.875 39.0625 C27.24609509 39.0574855 25.61718873 39.0529225 23.98828125 39.04882812 C19.99215173 39.03779397 15.99609158 39.02052679 12 39 C12 38.01 12 37.02 12 36 C12.95366455 35.98541748 13.9073291 35.97083496 14.88989258 35.95581055 C18.42933585 35.89782208 21.96814324 35.82059042 25.50708008 35.73754883 C27.03855059 35.70430182 28.57014356 35.67626907 30.10180664 35.65356445 C32.30407887 35.62001282 34.50522912 35.5677009 36.70703125 35.51171875 C37.39150833 35.50532883 38.07598541 35.4989389 38.78120422 35.49235535 C41.51113253 35.40798078 43.56434784 35.26310082 45.92871094 33.83520508 C48.42587272 29.55736435 47.46585283 23.80451673 47.4375 19 C47.45748047 17.79859375 47.47746094 16.5971875 47.49804688 15.359375 C47.49740234 14.20953125 47.49675781 13.0596875 47.49609375 11.875 C47.49794678 10.82054687 47.4997998 9.76609375 47.50170898 8.6796875 C47.25796395 5.91768465 47.25796395 5.91768465 45.24946594 4.35954285 C42.74572179 2.84631814 41.40285459 2.60923642 38.50683594 2.56762695 C37.18591949 2.53793571 37.18591949 2.53793571 35.83831787 2.50764465 C34.89651672 2.50125473 33.95471558 2.49486481 32.984375 2.48828125 C32.01340881 2.47033005 31.04244263 2.45237885 30.04205322 2.43388367 C26.94474615 2.37975727 23.8475934 2.34587717 20.75 2.3125 C18.64841602 2.27932902 16.5468524 2.24483957 14.4453125 2.20898438 C9.29698629 2.12402927 4.14870605 2.05722892 -1 2 C-0.67 1.34 -0.34 0.68 0 0 Z " fill="#F5F0F9" transform="translate(134,38)"/>
<path d="M0 0 C5.12093367 2.32338657 8.36529731 5.15637586 10.921875 10.26953125 C11.64098296 17.37809026 11.43580388 22.59818471 6.921875 28.26953125 C1.93362704 32.23976943 -2.15608437 32.91273155 -8.4921875 32.65234375 C-13.75572432 31.87314948 -16.28235774 29.32338518 -19.390625 25.20703125 C-21.99416386 20.67494508 -23.03821647 16.44848617 -22.078125 11.26953125 C-17.80496144 2.83003322 -9.74095234 -3.42398137 0 0 Z M-17.078125 9.26953125 C-18.67796787 12.46921699 -18.4410739 15.78911052 -18.078125 19.26953125 C-16.47834365 23.50895183 -14.93152275 25.91017017 -11.078125 28.26953125 C-6.73920965 29.05604158 -2.09436333 29.30747642 1.90234375 27.25 C5.45794809 24.34406164 7.76584326 21.62180631 8.296875 17.01953125 C7.74960609 11.54684213 5.93970555 8.05675259 1.734375 4.33203125 C-6.16810719 1.34664909 -11.58799164 2.96241376 -17.078125 9.26953125 Z " fill="#F3ECF8" transform="translate(107.078125,48.73046875)"/>
<path d="M0 0 C2.19791585 1.5848917 2.8966974 2.48627897 3.43359375 5.15625 C3.44406064 11.43638457 3.44406064 11.43638457 1.375 14.0625 C-1.70053186 15.27652573 -3.71939399 15.47842171 -7 15 C-9.375 13.5 -9.375 13.5 -11 11 C-11.6293407 7.48559179 -11.63147635 4.2629527 -10 1 C-6.83009169 -0.58495415 -3.45936747 -0.71140218 0 0 Z " fill="#F6F1F8" transform="translate(160,42)"/>
<path d="M0 0 C0.33 0 0.66 0 1 0 C1.33 24.42 1.66 48.84 2 74 C1.01 73.67 0.02 73.34 -1 73 C-1.02312504 63.62964062 -1.04091591 54.25929099 -1.05181217 44.88890934 C-1.05704065 40.53831541 -1.06413765 36.18774093 -1.07543945 31.8371582 C-1.08626959 27.64209742 -1.0922771 23.44705541 -1.09487724 19.25198174 C-1.09673126 17.64793032 -1.10035144 16.04387997 -1.10573006 14.4398365 C-1.11294219 12.20083485 -1.11399087 9.9619117 -1.11352539 7.72290039 C-1.115746 6.44604874 -1.11796661 5.16919708 -1.12025452 3.85365295 C-1 1 -1 1 0 0 Z " fill="#FCFBFC" transform="translate(86,147)"/>
<path d="M0 0 C0.93423645 3.01031744 1.04449911 3.86650268 0 7 C0.77085938 7.10957031 1.54171875 7.21914062 2.3359375 7.33203125 C3.84027344 7.56986328 3.84027344 7.56986328 5.375 7.8125 C6.87160156 8.03873047 6.87160156 8.03873047 8.3984375 8.26953125 C11 9 11 9 13 12 C12.01 11.67 11.02 11.34 10 11 C8.62478069 10.90943956 7.24562868 10.87211287 5.86743164 10.87060547 C5.03969742 10.86745331 4.2119632 10.86430115 3.35914612 10.86105347 C2.02314613 10.86408981 2.02314613 10.86408981 0.66015625 10.8671875 C-0.2583461 10.86623077 -1.17684845 10.86527405 -2.1231842 10.86428833 C-4.06576608 10.86360783 -6.00835023 10.86545305 -7.95092773 10.86962891 C-10.92241539 10.87497287 -13.89375147 10.86968265 -16.86523438 10.86328125 C-18.7526045 10.86394217 -20.63997453 10.86522363 -22.52734375 10.8671875 C-23.41598618 10.86516327 -24.3046286 10.86313904 -25.22019958 10.86105347 C-26.05108597 10.86420563 -26.88197235 10.86735779 -27.73803711 10.87060547 C-28.83032875 10.87179886 -28.83032875 10.87179886 -29.94468689 10.87301636 C-32.07074763 11.00437101 -33.95455732 11.41961025 -36 12 C-36 11.34 -36 10.68 -36 10 C-31.50343896 7.75171948 -27.92127034 7.83317728 -23 8 C-23.66 6.35 -24.32 4.7 -25 3 C-24.236875 3.495 -23.47375 3.99 -22.6875 4.5 C-17.72142371 6.52009883 -13.29972301 6.63014999 -8 6 C-5.02015833 4.66829691 -5.02015833 4.66829691 -3 3 C-2.34 3 -1.68 3 -1 3 C-0.67 2.01 -0.34 1.02 0 0 Z " fill="#9768DE" transform="translate(115,74)"/>
<path d="M0 0 C2.32590854 3.63423209 2.16265833 6.77088331 2 11 C-2.80303598 12.84732153 -7.8232978 14.12424085 -13 14 C-15 12 -15 12 -15.03125 9.54296875 C-14 7 -14 7 -11.09375 5.48828125 C-9.31484375 4.90626953 -9.31484375 4.90626953 -7.5 4.3125 C-2.91154601 3.18313882 -2.91154601 3.18313882 0 0 Z " fill="#8A64E7" transform="translate(138,122)"/>
<path d="M0 0 C0.99 0 1.98 0 3 0 C3 15.18 3 30.36 3 46 C2.01 46 1.02 46 0 46 C0 30.82 0 15.64 0 0 Z " fill="#F4F2FA" transform="translate(71,96)"/>
<path d="M0 0 C3.3125 1.9375 3.3125 1.9375 5 5 C5.64372809 8.00741718 5.92638329 10.92817551 6 14 C4.68 13.67 3.36 13.34 2 13 C1.71125 11.88625 1.4225 10.7725 1.125 9.625 C0.30758671 5.99708908 0.30758671 5.99708908 -2 4 C-5.38265752 3.44879509 -8.61731195 3.44932985 -12 4 C-14.79258601 6.96183365 -15.43197762 10.02384332 -16 14 C-16.99 14 -17.98 14 -19 14 C-19.40470394 9.30543431 -19.37795343 6.81405355 -17.375 2.5 C-13.03948032 -2.07359735 -5.68174568 -0.88246946 0 0 Z " fill="#F5EEF9" transform="translate(163,58)"/>
<path d="M0 0 C0.79481277 0.00141495 1.58962555 0.0028299 2.40852356 0.00428772 C4.9455645 0.00988247 7.482517 0.02243397 10.01953125 0.03515625 C11.7402331 0.04017193 13.46093633 0.04473472 15.18164062 0.04882812 C19.39847155 0.05985018 23.61523641 0.07711119 27.83203125 0.09765625 C24.19299345 3.69896209 20.40653735 3.56904163 15.56640625 3.609375 C14.77300842 3.6273262 13.9796106 3.6452774 13.16217041 3.66377258 C10.63551094 3.71782551 8.10903981 3.75175437 5.58203125 3.78515625 C3.86585924 3.81833385 2.14971206 3.85282392 0.43359375 3.88867188 C-3.76679107 3.9735488 -7.96712052 4.04038346 -12.16796875 4.09765625 C-11.83796875 3.10765625 -11.50796875 2.11765625 -11.16796875 1.09765625 C-7.40948701 -0.155171 -3.91305956 -0.0261621 0 0 Z " fill="#FCF8FC" transform="translate(95.16796875,83.90234375)"/>
<path d="M0 0 C0.99174728 0.00707474 1.98349457 0.01414948 3.0052948 0.0214386 C6.16446217 0.04936692 9.32183957 0.11210405 12.48046875 0.17578125 C14.6256254 0.20086607 16.7708099 0.22367891 18.91601562 0.24414062 C24.16727459 0.29918798 29.41749378 0.38279815 34.66796875 0.48828125 C34.66796875 0.81828125 34.66796875 1.14828125 34.66796875 1.48828125 C20.14796875 1.81828125 5.62796875 2.14828125 -9.33203125 2.48828125 C4.85796875 2.81828125 19.04796875 3.14828125 33.66796875 3.48828125 C33.66796875 3.81828125 33.66796875 4.14828125 33.66796875 4.48828125 C32.38631836 4.50810059 31.10466797 4.52791992 29.78417969 4.54833984 C25.02795808 4.62442628 20.27204118 4.71313923 15.51611328 4.80566406 C13.45790626 4.8439412 11.39963263 4.87879629 9.34130859 4.91015625 C6.38224487 4.95583403 3.42363918 5.01382427 0.46484375 5.07421875 C-0.45508362 5.08576996 -1.37501099 5.09732117 -2.32281494 5.10922241 C-3.61370026 5.13902695 -3.61370026 5.13902695 -4.93066406 5.16943359 C-5.685672 5.18275726 -6.44067993 5.19608093 -7.21856689 5.20980835 C-9.59996682 5.5235848 -11.25517953 6.30824351 -13.33203125 7.48828125 C-13.99203125 6.82828125 -14.65203125 6.16828125 -15.33203125 5.48828125 C-10.93879453 -0.36261926 -7.01578761 -0.18888872 0 0 Z " fill="#E2CDEF" transform="translate(143.33203125,36.51171875)"/>
<path d="M0 0 C-0.99 0.33 -1.98 0.66 -3 1 C-3.33 1.99 -3.66 2.98 -4 4 C-4.804375 4.268125 -5.60875 4.53625 -6.4375 4.8125 C-9.21044405 5.76203027 -9.21044405 5.76203027 -10.13427734 8.44970703 C-11.24571975 13.00768656 -11.35468365 17.31637448 -11.4140625 21.9921875 C-11.43342865 22.93812775 -11.4527948 23.88406799 -11.4727478 24.8586731 C-11.53227049 27.86402522 -11.57881946 30.86941621 -11.625 33.875 C-11.66320492 35.91928704 -11.70225811 37.96355842 -11.7421875 40.0078125 C-11.83794954 45.0050803 -11.92208114 50.00242342 -12 55 C-12.33 55 -12.66 55 -13 55 C-13 40.48 -13 25.96 -13 11 C-13.66 11 -14.32 11 -15 11 C-13.36909756 5.81076495 -10.43866508 2.62577672 -5.9375 -0.375 C-3.58376417 -1.13426962 -2.29943113 -0.8212254 0 0 Z " fill="#E1D4F1" transform="translate(87,85)"/>
<path d="M0 0 C0.99 0 1.98 0 3 0 C3.33 6.27 3.66 12.54 4 19 C9.61 19.33 15.22 19.66 21 20 C20.67 20.66 20.34 21.32 20 22 C13.73 22 7.46 22 1 22 C-0.20029908 19.59940183 -0.11459743 18.10639351 -0.09765625 15.4296875 C-0.09443359 14.53378906 -0.09121094 13.63789062 -0.08789062 12.71484375 C-0.07951172 11.77769531 -0.07113281 10.84054688 -0.0625 9.875 C-0.05798828 8.93011719 -0.05347656 7.98523438 -0.04882812 7.01171875 C-0.03702357 4.67441613 -0.02055759 2.33723939 0 0 Z " fill="#F9F6FB" transform="translate(84,110)"/>
<path d="M0 0 C0.99 0.33 1.98 0.66 3 1 C2.67 10.24 2.34 19.48 2 29 C1.01 28.67 0.02 28.34 -1 28 C-1.02886338 23.52084672 -1.04675187 19.04171709 -1.0625 14.5625 C-1.07087891 13.28310547 -1.07925781 12.00371094 -1.08789062 10.68554688 C-1.09111328 9.47060547 -1.09433594 8.25566406 -1.09765625 7.00390625 C-1.10289307 5.87799072 -1.10812988 4.7520752 -1.11352539 3.59204102 C-1 1 -1 1 0 0 Z " fill="#F8F4FB" transform="translate(128,43)"/>
<path d="M0 0 C0.66 0.33 1.32 0.66 2 1 C2 1.66 2 2.32 2 3 C3.32 3.33 4.64 3.66 6 4 C5.67 5.98 5.34 7.96 5 10 C4.01 9.67 3.02 9.34 2 9 C2 8.01 2 7.02 2 6 C-6.58 6 -15.16 6 -24 6 C-23.67 5.34 -23.34 4.68 -23 4 C-15.74 4 -8.48 4 -1 4 C-0.67 2.68 -0.34 1.36 0 0 Z " fill="#F9F7FB" transform="translate(135,101)"/>
<path d="M0 0 C14.52 0 29.04 0 44 0 C44 0.33 44 0.66 44 1 C37.565 1.495 37.565 1.495 31 2 C30.67 4.97 30.34 7.94 30 11 C29.67 11 29.34 11 29 11 C28.87625 9.88625 28.7525 8.7725 28.625 7.625 C28.3534187 3.96896323 28.3534187 3.96896323 26 2 C20.11663097 1.49033587 20.11663097 1.49033587 15 4 C15 3.34 15 2.68 15 2 C9.72 2 4.44 2 -1 2 C-0.67 1.34 -0.34 0.68 0 0 Z " fill="#9B63D5" transform="translate(134,41)"/>
<path d="M0 0 C0.66 0.33 1.32 0.66 2 1 C1.03714243 4.46628726 0.07650505 5.93417008 -2.6875 8.3125 C-6.44142764 10.22487823 -8.84473143 10.33242149 -13 10 C-13 9.01 -13 8.02 -13 7 C-12.39671875 6.82984375 -11.7934375 6.6596875 -11.171875 6.484375 C-6.48936628 5.06451752 -3.14688851 3.96781594 0 0 Z " fill="#F2F0F8" transform="translate(123,216)"/>
<path d="M0 0 C0.495 0.495 0.99 0.99 1.5 1.5 C5.11630158 3.66978095 7.82231616 3.20888419 12 3 C12 3.66 12 4.32 12 5 C12.66 5.33 13.32 5.66 14 6 C10.33755697 8.34396354 7.27605847 8.52512999 3 8 C0.0625 5.5 0.0625 5.5 -2 3 C-1.34 3 -0.68 3 0 3 C0 2.01 0 1.02 0 0 Z " fill="#E7E4F7" transform="translate(88,218)"/>
<path d="M0 0 C3 0.125 3 0.125 4 1.125 C4.1875 3.5625 4.1875 3.5625 4 6.125 C3.34 6.785 2.68 7.445 2 8.125 C-2.55555556 7.56944444 -2.55555556 7.56944444 -4 6.125 C-4.125 3.625 -4.125 3.625 -4 1.125 C-3 0.125 -3 0.125 0 0 Z " fill="#AC81DB" transform="translate(156,45.875)"/>
<path d="M0 0 C0.66 0.33 1.32 0.66 2 1 C1.525625 1.433125 1.05125 1.86625 0.5625 2.3125 C-1.23686957 4.02309613 -1.23686957 4.02309613 -2 7 C-3.56640625 8.0703125 -3.56640625 8.0703125 -5.5625 9.125 C-10.72752385 12.16050226 -14.2376529 16.40713479 -18 21 C-18.66 20.67 -19.32 20.34 -20 20 C-13.6688763 12.89967436 -7.30341903 6.13126536 0 0 Z " fill="#A365E2" transform="translate(42,27)"/>
<path d="M0 0 C3.74278215 1.4488189 3.74278215 1.4488189 4.875 3.875 C5 6 5 6 3 10 C-5.58 10 -14.16 10 -23 10 C-23 9.67 -23 9.34 -23 9 C-14.75 9 -6.5 9 2 9 C1.34 7.35 0.68 5.7 0 4 C0 2.68 0 1.36 0 0 Z " fill="#E7DEF3" transform="translate(131,95)"/>
<path d="M0 0 C0.495 0.99 0.495 0.99 1 2 C-3.01289384 3.89267931 -6.23809114 4.25066983 -10.65625 4.2734375 C-12.56083984 4.304375 -12.56083984 4.304375 -14.50390625 4.3359375 C-17.16790384 4.36197853 -19.83198925 4.38020817 -22.49609375 4.390625 C-23.76582031 4.41382812 -25.03554687 4.43703125 -26.34375 4.4609375 C-28.07915039 4.47326416 -28.07915039 4.47326416 -29.84960938 4.48583984 C-33.58968875 5.09624028 -35.27692703 6.43069006 -38 9 C-38.66 8.67 -39.32 8.34 -40 8 C-37.35635811 4.85849301 -35.85723274 3.16595974 -31.7578125 2.37231445 C-30.55898437 2.3693335 -29.36015625 2.36635254 -28.125 2.36328125 C-26.81015625 2.34330078 -25.4953125 2.32332031 -24.140625 2.30273438 C-22.760414 2.30453323 -21.38020418 2.30780212 -20 2.3125 C-17.29126901 2.30073673 -14.58365108 2.2714755 -11.875 2.23828125 C-10.07675781 2.2388855 -10.07675781 2.2388855 -8.2421875 2.23950195 C-5.06552154 2.00484011 -2.857772 1.35980071 0 0 Z " fill="#8D5CDA" transform="translate(182,75)"/>
<path d="M0 0 C0.6875 1.75 0.6875 1.75 1 4 C0 6.125 0 6.125 -2 8 C-4.71229503 8.29642569 -6.99739732 8.38061189 -9.6875 8.25 C-10.7403418 8.22292969 -10.7403418 8.22292969 -11.81445312 8.1953125 C-13.54355436 8.14826213 -15.27195205 8.07651873 -17 8 C-17 7.67 -17 7.34 -17 7 C-16.18015625 6.87882812 -15.3603125 6.75765625 -14.515625 6.6328125 C-13.43796875 6.46523437 -12.3603125 6.29765625 -11.25 6.125 C-10.18265625 5.96257812 -9.1153125 5.80015625 -8.015625 5.6328125 C-5.28483211 5.05977047 -3.31067819 4.54405131 -1 3 C-0.67 2.01 -0.34 1.02 0 0 Z " fill="#9D6DE2" transform="translate(115,74)"/>
<path d="M0 0 C0.66 0.33 1.32 0.66 2 1 C1.67 1.66 1.34 2.32 1 3 C0.91440882 5.17824961 0.89286588 7.35915255 0.90234375 9.5390625 C0.90556641 10.84101562 0.90878906 12.14296875 0.91210938 13.484375 C0.92046534 14.86458399 0.92893029 16.24479232 0.9375 17.625 C0.94251499 19.01301926 0.9470779 20.40104022 0.95117188 21.7890625 C0.96299024 25.19275132 0.97946566 28.59635439 1 32 C0.34 31.67 -0.32 31.34 -1 31 C-1.19222407 26.90707083 -1.3709507 22.81379909 -1.53710938 18.71972656 C-1.59555965 17.32666167 -1.65771628 15.9337472 -1.72363281 14.54101562 C-1.81766015 12.54079773 -1.89732059 10.53992068 -1.9765625 8.5390625 C-2.02893066 7.33459473 -2.08129883 6.13012695 -2.13525391 4.88916016 C-2 2 -2 2 0 0 Z " fill="#9864D4" transform="translate(127,41)"/>
<path d="M0 0 C0.66 0.33 1.32 0.66 2 1 C2.4140625 3.06640625 2.4140625 3.06640625 2.625 5.5625 C2.69976562 6.38878906 2.77453125 7.21507813 2.8515625 8.06640625 C2.90054688 8.70449219 2.94953125 9.34257813 3 10 C1.68 9.67 0.36 9.34 -1 9 C-1.625 5.625 -1.625 5.625 -2 2 C-1.34 1.34 -0.68 0.68 0 0 Z " fill="#EEE4F6" transform="translate(166,62)"/>
<path d="M0 0 C2 1 2 1 2.8515625 3.3984375 C3.10679687 4.38070312 3.36203125 5.36296875 3.625 6.375 C3.88539063 7.35210937 4.14578125 8.32921875 4.4140625 9.3359375 C5 12 5 12 5 15 C4.34 15 3.68 15 3 15 C2.67 15.66 2.34 16.32 2 17 C1.34 11.39 0.68 5.78 0 0 Z " fill="#DACAFA" transform="translate(306,108)"/>
<path d="M0 0 C0.33 0 0.66 0 1 0 C0.67 5.28 0.34 10.56 0 16 C-0.99 15.34 -1.98 14.68 -3 14 C-2.28547412 9.23649415 -1.20465156 4.65798604 0 0 Z " fill="#E0D2FB" transform="translate(375,109)"/>
<path d="M0 0 C7.50769231 -0.36923077 7.50769231 -0.36923077 10 1.5 C10.495 2.2425 10.495 2.2425 11 3 C10.67 3.66 10.34 4.32 10 5 C7.36 4.67 4.72 4.34 2 4 C2.99 3.34 3.98 2.68 5 2 C3.02 2 1.04 2 -1 2 C-0.67 1.34 -0.34 0.68 0 0 Z " fill="#E9DAF3" transform="translate(152,42)"/>
<path d="M0 0 C2.475 0.495 2.475 0.495 5 1 C5 2.65 5 4.3 5 6 C3.35 5.67 1.7 5.34 0 5 C0 3.35 0 1.7 0 0 Z " fill="#9856E2" transform="translate(154,47)"/>
<path d="M0 0 C-0.99 0 -1.98 0 -3 0 C-3.33 1.32 -3.66 2.64 -4 4 C-5.65 4 -7.3 4 -9 4 C-9.33 3.34 -9.66 2.68 -10 2 C-9.34 2 -8.68 2 -8 2 C-8 1.34 -8 0.68 -8 0 C-4.94736336 -0.98120464 -3.05263664 -0.98120464 0 0 Z " fill="#EAE4F6" transform="translate(134,136)"/>
<path d="M0 0 C0 3.15081975 -0.27898465 4.41847698 -2 7 C-4.125 7.75 -4.125 7.75 -6 8 C-5.67 7.34 -5.34 6.68 -5 6 C-7.64 5.67 -10.28 5.34 -13 5 C-13 4.67 -13 4.34 -13 4 C-12.39671875 3.96261719 -11.7934375 3.92523438 -11.171875 3.88671875 C-5.00632228 3.43746659 -5.00632228 3.43746659 0 0 Z " fill="#DFCEEF" transform="translate(111,73)"/>
<path d="M0 0 C1.32 0.66 2.64 1.32 4 2 C2.63016497 5.16115776 2.0109362 5.9927092 -1 8 C-1.04241723 5.66705225 -1.04092937 3.33297433 -1 1 C-0.67 0.67 -0.34 0.34 0 0 Z " fill="#9461DE" transform="translate(140,73)"/>
<path d="M0 0 C-1.15173355 2.46800047 -2.04783565 4.04783565 -4 6 C-4.39764263 7.98821313 -4.73775349 9.98944339 -5 12 C-5.33 12 -5.66 12 -6 12 C-6.48979592 4.65306122 -6.48979592 4.65306122 -4.125 1.5 C-2 0 -2 0 0 0 Z " fill="#E4D4F1" transform="translate(91,56)"/>
<path d="M0 0 C0.66 0.33 1.32 0.66 2 1 C2 1.99 2 2.98 2 4 C0.02 4.99 0.02 4.99 -2 6 C-2.66 5.34 -3.32 4.68 -4 4 C-2.68 2.68 -1.36 1.36 0 0 Z " fill="#F0E5F5" transform="translate(132,38)"/>
<path d="M0 0 C1.65 0 3.3 0 5 0 C5.33 0.99 5.66 1.98 6 3 C4.35 4.32 2.7 5.64 1 7 C0.67 4.69 0.34 2.38 0 0 Z " fill="#915DE5" transform="translate(136,86)"/>
<path d="M0 0 C1.2065625 0.0309375 1.2065625 0.0309375 2.4375 0.0625 C1.1175 0.3925 -0.2025 0.7225 -1.5625 1.0625 C-1.5625 1.7225 -1.5625 2.3825 -1.5625 3.0625 C0.0875 3.0625 1.7375 3.0625 3.4375 3.0625 C3.4375 3.3925 3.4375 3.7225 3.4375 4.0625 C1.1275 4.0625 -1.1825 4.0625 -3.5625 4.0625 C-3.5625 0.08689024 -3.5625 0.08689024 0 0 Z " fill="#D8D5F5" transform="translate(113.5625,221.9375)"/>
<path d="M0 0 C0.33 0 0.66 0 1 0 C1 1.65 1 3.3 1 5 C-0.98 5.99 -0.98 5.99 -3 7 C-3 5.68 -3 4.36 -3 3 C-2.34 3 -1.68 3 -1 3 C-0.67 2.01 -0.34 1.02 0 0 Z " fill="#7568E9" transform="translate(101,214)"/>
</svg>
